<svg width="75" height="75" viewBox="0 0 75 75" fill="none" xmlns="http://www.w3.org/2000/svg">
<g clip-path="url(#clip0_78_4)">
<path d="M49.5375 28.0656H35.2V0H49.5375C57.275 0 63.5688 6.29375 63.5688 14.0312C63.5688 21.7687 57.275 28.0656 49.5375 28.0656ZM39.7969 23.4688H49.5375C54.7406 23.4688 58.9719 19.2344 58.9719 14.0344C58.9719 8.83438 54.7375 4.6 49.5375 4.6H39.7969V23.4688ZM39.7969 28.0656H25.4625C17.725 28.0656 11.4313 21.7719 11.4313 14.0344C11.4313 6.29688 17.725 0 25.4625 0H39.8V28.0656H39.7969ZM25.4625 4.59687C20.2594 4.59687 16.0281 8.83125 16.0281 14.0312C16.0281 19.2312 20.2594 23.4688 25.4625 23.4688H35.2031V4.59687H25.4625ZM39.7969 51.5312H25.4625C17.725 51.5312 11.4313 45.2375 11.4313 37.5C11.4313 29.7625 17.725 23.4688 25.4625 23.4688H39.8V51.5312H39.7969ZM25.4625 28.0656C20.2594 28.0656 16.0281 32.3 16.0281 37.5C16.0281 42.7 20.2625 46.9344 25.4625 46.9344H35.2031V28.0656H25.4625ZM25.5375 75C17.7594 75 11.4281 68.7063 11.4281 60.9688C11.4281 53.2313 17.7219 46.9375 25.4594 46.9375H39.7969V60.8156C39.7969 68.6375 33.4 75 25.5375 75ZM25.4625 51.5312C22.9614 51.5346 20.5636 52.5296 18.795 54.2982C17.0265 56.0667 16.0314 58.4645 16.0281 60.9656C16.0281 66.1688 20.2938 70.4 25.5406 70.4C30.8688 70.4 35.2063 66.1 35.2063 60.8125V51.5312H25.4625ZM49.5375 51.5312H49.2313C41.4938 51.5312 35.2 45.2375 35.2 37.5C35.2 29.7625 41.4938 23.4688 49.2313 23.4688H49.5375C57.275 23.4688 63.5688 29.7625 63.5688 37.5C63.5688 45.2375 57.275 51.5312 49.5375 51.5312ZM49.2344 28.0656C44.0313 28.0656 39.8 32.3 39.8 37.5C39.8 42.7 44.0344 46.9344 49.2344 46.9344H49.5406C54.7438 46.9344 58.975 42.7 58.975 37.5C58.975 32.3 54.7375 28.0656 49.5375 28.0656H49.2344Z" fill="#00FF0A"/>
</g>
<defs>
<clipPath id="clip0_78_4">
<rect width="75" height="75" fill="white"/>
</clipPath>
</defs>
</svg>
