<svg width="50" height="50" viewBox="0 0 50 50" fill="none" xmlns="http://www.w3.org/2000/svg">
<path d="M24.9609 2.00002C24.8395 1.99638 24.7183 2.01491 24.6035 2.05471L3.67188 9.33986C3.45599 9.41497 3.27234 9.56176 3.15151 9.75579C3.03069 9.94982 2.97997 10.1794 3.00782 10.4063L6.31446 37.5293C6.33377 37.6876 6.39065 37.839 6.48034 37.9708C6.57004 38.1026 6.68995 38.2111 6.83008 38.2871L24.4766 47.8789C24.6238 47.959 24.7887 48.0007 24.9563 48.0004C25.1239 48.0001 25.2887 47.9576 25.4356 47.877L43.1738 38.1543C43.313 38.078 43.432 37.9696 43.521 37.8382C43.6099 37.7067 43.6664 37.556 43.6856 37.3985L46.9922 10.2774C47.0201 10.0494 46.9688 9.81884 46.8468 9.6243C46.7248 9.42975 46.5396 9.28311 46.3223 9.20901L25.2539 2.05276C25.1594 2.02066 25.0607 2.00289 24.9609 2.00002ZM24.9375 4.05861L44.9082 10.8418L41.7617 36.6485L24.9531 45.8614L8.23828 36.7754L5.08985 10.9649L24.9375 4.05861ZM25.0352 6.00002C24.8388 5.99326 24.6448 6.04449 24.4774 6.1473C24.31 6.25012 24.1765 6.39997 24.0938 6.57815L11.0938 34.5781C11.0229 34.7305 10.9916 34.8983 11.0026 35.0659C11.0137 35.2336 11.0669 35.3958 11.1572 35.5375C11.2475 35.6791 11.3721 35.7958 11.5194 35.8767C11.6667 35.9575 11.832 35.9999 12 36H16.4375C16.6279 35.9999 16.8144 35.9455 16.9749 35.8431C17.1354 35.7407 17.2634 35.5945 17.3438 35.4219L19.8574 30.0078H30.1426L32.6563 35.4219C32.7366 35.5945 32.8646 35.7407 33.0251 35.8431C33.1856 35.9455 33.3721 35.9999 33.5625 36H38C38.168 35.9999 38.3333 35.9575 38.4806 35.8767C38.6279 35.7958 38.7525 35.6791 38.8428 35.5375C38.9331 35.3958 38.9863 35.2336 38.9974 35.0659C39.0085 34.8983 38.9771 34.7305 38.9063 34.5781L25.9063 6.57815C25.8285 6.4108 25.706 6.26823 25.5523 6.16619C25.3985 6.06416 25.2196 6.00665 25.0352 6.00002ZM25 9.37307L36.4336 34H34.2012L31.6875 28.586C31.6072 28.4133 31.4792 28.2672 31.3187 28.1648C31.1581 28.0624 30.9717 28.0079 30.7813 28.0078H19.2188C19.0283 28.0079 18.8419 28.0624 18.6814 28.1648C18.5208 28.2672 18.3928 28.4133 18.3125 28.586L15.7969 34H13.5664L25 9.37307ZM25.0391 15.5C24.8413 15.4924 24.6457 15.5437 24.4771 15.6473C24.3085 15.7509 24.1744 15.9022 24.0918 16.0821L20.166 24.5938C20.096 24.7461 20.0653 24.9136 20.0769 25.0809C20.0886 25.2482 20.142 25.4098 20.2325 25.551C20.3229 25.6922 20.4474 25.8084 20.5945 25.8889C20.7416 25.9694 20.9065 26.0117 21.0742 26.0117H28.9258C29.0935 26.0117 29.2584 25.9694 29.4055 25.8889C29.5526 25.8084 29.6771 25.6922 29.7675 25.551C29.858 25.4098 29.9115 25.2482 29.9231 25.0809C29.9347 24.9136 29.904 24.7461 29.834 24.5938L25.9082 16.0821C25.8312 15.9143 25.7092 15.7711 25.5558 15.6683C25.4024 15.5656 25.2235 15.5074 25.0391 15.5ZM25 18.8867L27.3633 24.0117H22.6367L25 18.8867Z" fill="#0500FF"/>
</svg>
