<svg width="50" height="50" viewBox="0 0 50 50" fill="none" xmlns="http://www.w3.org/2000/svg">
<path d="M5.28121 2C4.76559 2.09375 4.41012 2.57422 4.46871 3.09375L7.99996 42.5312C8.04684 42.9336 8.332 43.2656 8.71871 43.375L24.7187 47.9688C24.9023 48.0234 25.0976 48.0234 25.2812 47.9688L41.2812 43.375C41.6679 43.2656 41.9531 42.9336 42 42.5312L45.5312 3.09375C45.5586 2.8125 45.4648 2.53516 45.2734 2.32422C45.082 2.11719 44.8125 2 44.5312 2H5.46871C5.43746 2 5.40621 2 5.37496 2C5.34371 2 5.31246 2 5.28121 2ZM6.56246 4H43.4375L40.0937 41.6562L25 45.9375L9.90621 41.6562L6.56246 4ZM12.5312 10.0625C12.0156 10.1562 11.6601 10.6367 11.7187 11.1562L13.0625 25.9375C13.0937 26.4531 13.5156 26.8594 14.0312 26.875H30L29.5625 31.4688L25.0312 32.4375L20.4375 31.4688L20.2812 29.8438C20.25 29.3164 19.8086 28.9062 19.2812 28.9062H14.4062C14.125 28.9062 13.8554 29.0234 13.664 29.2305C13.4726 29.4414 13.3789 29.7188 13.4062 30L13.9687 36.125C14 36.5273 14.2695 36.875 14.6562 37L24.5937 40.0312L24.7187 40.0625C24.9023 40.1172 25.0976 40.1172 25.2812 40.0625L35.3437 37C35.7422 36.8867 36.0273 36.5391 36.0625 36.125L37.375 21.0938C37.4023 20.8164 37.3125 20.543 37.1289 20.3359C36.9453 20.1289 36.6836 20.0078 36.4062 20H19.375L19.125 16.9062H36.8437C37.3632 16.9102 37.7968 16.5156 37.8437 16L38.2812 11.1562C38.3086 10.875 38.2148 10.5977 38.0234 10.3867C37.832 10.1797 37.5625 10.0625 37.2812 10.0625H12.7187C12.6562 10.0547 12.5937 10.0547 12.5312 10.0625ZM13.8125 12.0625H36.1875L35.9375 14.9062H18.0312C17.75 14.9062 17.4804 15.0234 17.289 15.2305C17.0976 15.4414 17.0039 15.7188 17.0312 16L17.5 21.0938C17.5468 21.5977 17.9648 21.9883 18.4687 22H35.3125L34.125 35.2812L25 38.0312L15.875 35.2812L15.5 30.9062H18.375L18.5 32.375C18.5312 32.8164 18.8476 33.1836 19.2812 33.2812L24.8437 34.4375C24.9765 34.4648 25.1172 34.4648 25.25 34.4375L30.7187 33.2812C31.1523 33.1836 31.4687 32.8164 31.5 32.375L32.0937 25.9375C32.1093 25.6602 32.0117 25.3906 31.8242 25.1914C31.6328 24.9883 31.3711 24.875 31.0937 24.875H14.9375L13.8125 12.0625Z" fill="#FF0000"/>
</svg>
