<svg width="50" height="50" viewBox="0 0 50 50" fill="none" xmlns="http://www.w3.org/2000/svg">
<path d="M26 2C13.3086 2 3 12.3086 3 25C3 37.6914 13.3086 48 26 48C35.918 48 41.9727 43.4375 45.125 37.7812C48.2773 32.125 48.6758 25.4805 47.7188 20.9375L47.5312 20.1562H46.75L26 20.125H25V30.5312H36.4375C34.7109 34.5312 31.1953 37.2812 26 37.2812C19.2109 37.2812 13.7188 31.7891 13.7188 25C13.7188 18.2109 19.2109 12.7188 26 12.7188C29.0508 12.7188 31.8203 13.8477 33.9688 15.6875L34.6875 16.2812L41.5312 9.4375L42.25 8.6875L41.5 8C37.4141 4.27734 31.9609 2 26 2ZM26 4C31.0742 4 35.6523 5.85547 39.2812 8.84375L34.4688 13.6562C32.0898 11.8789 29.1992 10.7188 26 10.7188C18.1289 10.7188 11.7188 17.1289 11.7188 25C11.7188 32.8711 18.1289 39.2812 26 39.2812C32.5508 39.2812 37.2617 35.2656 38.9375 29.8125L39.3438 28.5312H27V22.125L45.8438 22.1562C46.5078 26.1914 46.0664 31.9844 43.375 36.8125C40.5156 41.9375 35.3203 46 26 46C14.3867 46 5 36.6094 5 25C5 13.3906 14.3867 4 26 4Z" fill="#00FF0A"/>
</svg>
