<svg width="50" height="50" viewBox="0 0 50 50" fill="none" xmlns="http://www.w3.org/2000/svg">
<path d="M22.8515 5.80273C20.6235 5.80273 18.2718 6.21977 16.0488 7.00977C13.3868 7.95577 8.35371 10.0739 4.55271 13.6289C0.693708 17.2389 -0.258308 20.7118 0.136692 22.7598C0.877692 26.5978 4.56707 29.2252 7.37107 31.1582C5.32307 32.4122 3.098 34.1394 2.207 36.1094C1.366 37.9674 1.32115 39.881 2.07615 41.498C2.64015 42.705 3.60332 43.6006 4.65232 43.8926C5.37832 44.0946 6.12879 44.1973 6.88279 44.1973C9.86079 44.1973 12.7987 42.572 14.5527 39.957C14.8157 39.565 15.0423 39.1572 15.2363 38.7402C15.3433 38.8672 15.4543 38.9877 15.5683 39.0957C16.5253 40.0027 17.666 40.002 18.041 40.002C19.197 40.002 20.0106 39.5009 20.5976 38.8789C21.0876 39.2049 21.6641 39.3789 22.2851 39.3789C22.3601 39.3789 22.4377 39.3781 22.5117 39.3691C23.7547 39.2171 25.0957 38.0039 25.0957 38.0039C25.1477 38.0489 25.1998 38.0908 25.2558 38.1328C25.7838 38.5308 26.4481 38.7246 27.2851 38.7246C27.4241 38.7246 27.5679 38.7209 27.7129 38.7109C28.7359 38.6419 29.5072 38.3974 29.9922 38.1934C30.4802 38.0154 31.1866 37.7006 31.8926 37.1816C32.0636 37.0556 32.2269 36.9232 32.3789 36.7832C32.6899 36.9722 33.0408 37.1085 33.4218 37.1855C33.6078 37.2235 33.8019 37.2422 34.0019 37.2422C34.5279 37.2422 35.0972 37.1136 35.7402 36.8496C36.2622 36.6696 37.0156 36.3469 37.7676 35.7949C39.5096 34.5139 40.3571 32.9914 40.2851 31.2734C40.2831 31.2204 40.2794 31.1673 40.2754 31.1133C40.5324 31.0853 40.7982 31.0723 41.0722 31.0723C41.4112 31.0723 41.7688 31.0947 42.1328 31.1367C44.5178 31.4157 45.0305 32.5411 45.0215 32.9141C45.0065 33.0121 44.8367 33.1696 44.6777 33.2676C43.6687 33.8916 43.2487 34.7018 43.4277 35.6758C43.6187 36.7298 44.5041 37.4688 45.5801 37.4688C45.7851 37.4688 45.9643 37.443 46.1133 37.418C47.3923 37.202 49.8294 35.6147 49.9414 32.7617C50.0074 31.1057 49.329 29.4113 48.082 28.1133C46.515 26.4833 44.2173 25.5859 41.6113 25.5859H41.5508C40.4748 25.5919 39.4298 25.7394 38.4258 26.0254L38.3945 25.7988C38.3335 25.3698 38.3103 25.2089 38.3593 24.8359C38.4033 24.5009 38.608 23.8955 38.707 23.6035C38.846 23.1955 38.9471 22.9008 38.9121 22.4648C38.8441 21.6138 38.1369 20.1683 35.9199 20.1523H35.9121H35.8574C33.8874 20.1523 32.6702 20.7245 32.2402 21.8535C32.1862 21.9945 32.1226 22.1805 32.0566 22.3945C31.5966 21.9105 30.8576 21.5295 29.7246 21.5215H29.7168H29.6601C29.4251 21.5215 29.2013 21.5309 28.9883 21.5469C31.8303 18.9139 33.6417 15.1328 32.7187 11.5098C31.8217 7.98977 28.0405 5.80273 22.8515 5.80273ZM22.8496 7.79297C26.8396 7.79297 30.0999 9.28491 30.7929 12.0039C31.8069 15.9799 28.3536 20.7353 23.9336 22.4453C21.6366 23.3343 19.5704 23.623 17.9804 23.623C16.8394 23.623 15.9428 23.4731 15.3828 23.2891C13.8588 22.7891 12.9641 21.7857 12.7461 21.2188C12.6611 20.9967 12.5131 20.6231 12.7461 20.4941C12.7861 20.4721 12.8204 20.457 12.8554 20.457C12.9474 20.457 13.0551 20.5515 13.3301 20.8555C13.6491 21.2075 14.8128 22.0781 16.9668 22.0781C17.2698 22.0781 17.5945 22.0624 17.9375 22.0234C25.2325 21.2054 29.6263 15.5363 28.2383 12.4863C27.7283 11.3663 25.9389 10.5703 23.3379 10.5703C20.9809 10.5703 17.9572 11.2256 14.6172 12.8906C6.04116 17.1636 5.57688 20.6854 5.50388 22.0234C5.30288 25.7034 10.0453 27.6409 12.6113 30.3789C12.6453 30.4149 12.6779 30.4503 12.7109 30.4863C13.1919 30.2213 13.6983 29.9429 14.1953 29.6699C15.4893 28.9589 16.7073 28.2924 17.2773 27.9824C18.1803 26.6704 20.0149 25.2227 21.3379 25.2227C23.4539 25.2227 22.7246 28.2617 22.7246 28.2617C22.7246 28.2617 22.7681 28.1201 22.8261 28.1191C22.8721 28.1181 23.0207 27.8828 23.3847 27.8828C23.4937 27.8828 23.6205 27.904 23.7715 27.959C24.4435 28.205 24.2909 28.6766 24.2949 28.7246C24.3029 28.8176 23.5019 31.52 23.1679 33.252C23.0089 34.078 23.1014 34.6797 23.1484 34.6797C23.2144 34.6797 23.3476 34.4682 23.4726 34.2422L23.4707 34.2363C23.4707 34.2363 23.5637 34.0668 23.7207 33.7598C23.7407 33.7188 23.7519 33.6934 23.7519 33.6934L23.7539 33.6953C23.9379 33.3333 24.1971 32.8035 24.4961 32.1445C25.0831 30.8505 27.3236 25.8577 27.5136 25.3047C27.7036 24.7517 27.8035 24.1795 27.8965 23.9355C27.9885 23.6955 28.7532 23.5137 29.6582 23.5137H29.707C30.633 23.5207 30.7254 23.9141 30.7324 23.9961C30.7394 24.0781 30.2914 25.1733 30.1894 25.9473C30.0874 26.7213 30.1855 27.1098 30.2695 27.7598C30.3255 28.1858 30.5913 28.7249 30.9043 29.3359C31.8613 27.7699 33.5479 24.7745 33.7109 23.9355C33.8219 23.3625 34.0007 22.8124 34.0937 22.5684C34.1857 22.3284 34.9514 22.1445 35.8554 22.1445H35.9023C36.8283 22.1515 36.9227 22.5469 36.9297 22.6289C36.9367 22.7109 36.4887 23.8061 36.3867 24.5801C36.2847 25.3541 36.3828 25.7406 36.4668 26.3906C36.5388 26.9466 36.9705 27.6969 37.3965 28.5469C38.5615 27.9729 39.9516 27.5861 41.5566 27.5781H41.6074C45.7264 27.5781 48.0491 30.2525 47.9531 32.6875C47.8811 34.6095 46.1131 35.403 45.7851 35.459C45.7051 35.473 45.6361 35.4824 45.5801 35.4824C45.4691 35.4824 45.4058 35.4424 45.3828 35.3184C45.3588 35.1894 45.4446 35.13 45.7246 34.957C46.0046 34.784 46.8412 34.21 46.9902 33.166C47.1402 32.122 46.3563 29.6291 42.3633 29.1621C41.9093 29.1091 41.4802 29.0859 41.0722 29.0859C39.8092 29.0859 38.7651 29.3217 37.9121 29.6777C38.1221 30.2207 38.2768 30.7855 38.3008 31.3555C38.3528 32.6075 37.4878 33.5324 36.5898 34.1934C36.0668 34.5784 35.505 34.8352 35.039 34.9902C34.727 35.1222 34.3299 35.2559 34.0019 35.2559C33.9359 35.2559 33.8734 35.2503 33.8144 35.2383C33.0354 35.0813 32.6204 34.3902 33.1504 32.8652C33.4374 32.0402 34.2627 30.7832 35.5937 29.7012C35.2897 29.0762 34.9513 28.4395 34.7793 27.8555C34.4403 26.7025 34.3359 26.0059 34.3359 26.0059C34.3359 26.0059 33.2363 28.2806 31.8203 30.3516C31.7383 30.4716 31.6571 30.5881 31.5761 30.7051C31.8541 31.3501 32.0745 32.0346 32.1035 32.7246C32.1555 33.9756 31.6128 34.921 30.7148 35.582C30.2278 35.94 29.7096 36.1877 29.2636 36.3457C28.9776 36.4697 28.3991 36.6725 27.5761 36.7285C27.4771 36.7355 27.3792 36.7402 27.2832 36.7402C26.9442 36.7402 26.6392 36.6918 26.4492 36.5488C26.1162 36.2988 26.076 35.9865 26.248 35.5625C26.394 35.2025 27.4844 33.9562 28.4004 32.8652C28.6524 32.5642 28.8943 32.2577 29.1093 31.9727C29.1063 31.9657 29.1054 31.9609 29.1054 31.9609C29.1054 31.9609 29.271 31.747 29.541 31.373C29.207 30.654 28.782 29.9026 28.582 29.2246C28.243 28.0716 28.1406 27.373 28.1406 27.373C28.1406 27.373 27.0272 30.2269 25.8672 32.5039C24.9692 34.2669 24.3696 35.3357 24.0996 35.8047C24.0976 35.8167 24.0957 35.8223 24.0957 35.8223C24.0957 35.8223 24.0563 35.891 23.9863 35.998C23.9523 36.056 23.9355 36.0859 23.9355 36.0859C23.9355 36.0859 23.9346 36.0821 23.9336 36.0781C23.6326 36.5221 22.9561 37.3926 22.2851 37.3926C20.4411 37.3926 21.1191 33.6504 21.1191 33.6504C21.1191 33.6504 20.5806 35.0366 19.9726 36.2266C19.4776 37.1966 19.027 38.0176 18.041 38.0176C17.756 38.0176 17.3076 38.0083 16.9336 37.6543C16.0866 36.8503 15.4394 34.8085 15.5664 33.2285C15.6744 31.8835 15.881 30.9528 16.164 30.1758C15.657 30.4518 15.0735 30.778 14.4785 31.127C14.1735 31.306 13.8664 31.488 13.5644 31.666C13.5744 31.684 13.5847 31.7027 13.5937 31.7207C14.3517 33.1847 14.5514 36.3896 12.9004 38.8516C11.5614 40.8486 9.28983 42.2129 6.88083 42.2129C6.31883 42.2129 5.74957 42.1385 5.18357 41.9805C4.21757 41.7115 2.7566 39.7137 4.0156 36.9297C5.1256 34.4757 9.5634 32.1522 10.7324 31.5742C10.8304 31.5202 10.9397 31.4614 11.0547 31.3984C8.72366 29.3594 2.89996 26.6098 2.08396 22.3848C1.85396 21.1958 2.41122 18.3491 5.90622 15.0801C8.84522 12.3311 12.9349 10.2268 16.7109 8.88477C18.7899 8.14577 20.9056 7.79297 22.8496 7.79297ZM23.3418 12.5527C25.4718 12.5527 26.3404 13.1712 26.4414 13.3242C26.5814 13.6342 26.5497 14.3263 26.0097 15.2793C24.8527 17.3193 21.8397 19.5849 17.7187 20.0469C17.4617 20.0759 17.2107 20.0898 16.9707 20.0898C15.4297 20.0898 14.7892 19.5021 14.7832 19.4961C14.4252 19.1001 13.8513 18.4678 12.8593 18.4668C12.4893 18.4668 12.1291 18.5639 11.7871 18.7539C11.4961 18.9149 10.0856 19.824 10.8906 21.918C11.3276 23.054 12.6926 24.4958 14.7656 25.1758C15.3196 25.3578 15.9981 25.4847 16.7441 25.5527C16.4421 25.8527 16.1742 26.1554 15.9472 26.4434C15.3022 26.7954 14.2972 27.3458 13.2422 27.9258L13.0429 28.0332C12.3979 27.4652 11.7101 26.9379 11.0371 26.4199C8.84508 24.7339 7.41421 23.5239 7.49021 22.1289C7.65121 19.1809 11.9378 16.4421 15.5058 14.6641C18.2378 13.3031 21.0208 12.5527 23.3418 12.5527ZM25.8867 23.7383C25.8697 23.8033 25.8549 23.8705 25.8379 23.9395C25.7809 24.1695 25.7166 24.4283 25.6386 24.6543C25.5726 24.8343 25.2957 25.4746 24.9297 26.3066C24.8737 26.2746 24.8168 26.2448 24.7578 26.2168C24.6578 25.6348 24.4477 25.0366 24.0527 24.5176C24.2507 24.4476 24.4493 24.3729 24.6523 24.2949C25.0683 24.1339 25.4807 23.9483 25.8867 23.7383ZM21.2929 27.0176C20.9489 27.0176 20.3911 27.3174 19.8711 27.8984C19.4231 28.4004 18.6597 29.6934 18.3027 30.7754C17.5927 32.9254 17.8983 35.1102 18.4023 35.2422C18.4173 35.2462 18.4342 35.248 18.4492 35.248C19.0392 35.248 19.966 32.4924 20.414 31.3984C20.703 30.6944 21.8261 27.5713 21.5801 27.1543C21.5261 27.0633 21.4259 27.0176 21.2929 27.0176ZM36.2304 30.5586C35.4844 31.2176 35.0552 31.9084 34.8672 32.3184C34.3882 33.3624 34.3647 33.6968 34.5097 33.8008C35.2067 33.5508 36.3572 32.947 36.3672 31.332C36.3692 31.09 36.3174 30.8296 36.2304 30.5586ZM12.1484 32.3379C12.0764 32.3799 12.0093 32.4209 11.9433 32.4609V32.4629C11.9433 32.4629 11.9124 32.4807 11.8554 32.5137C11.5114 32.7197 11.2271 32.8899 11.0351 33.0059C10.1881 33.5349 8.91085 34.3951 7.92185 35.3281C6.29885 36.8591 5.95843 38.9845 6.81443 39.4805C6.99743 39.5865 7.2386 39.6387 7.5156 39.6387C8.4356 39.6387 9.76032 39.0602 10.7773 37.9512C12.1653 36.4362 12.7384 34.5169 12.1484 32.3379ZM30.1679 32.5879C29.8799 32.9659 29.6147 33.3019 29.3867 33.5859C28.9947 34.0739 27.998 35.1445 27.998 35.1445C27.998 35.1445 27.8569 35.2785 27.9179 35.3145C27.9379 35.3265 27.9632 35.332 27.9922 35.332C28.0872 35.332 28.2269 35.2753 28.3769 35.1973C28.9299 34.8493 30.1688 33.9832 30.1718 32.6992C30.1718 32.6622 30.1709 32.6259 30.1679 32.5879Z" fill="#00FF0A"/>
</svg>
