<svg width="45" height="45" viewBox="0 0 45 45" fill="none" xmlns="http://www.w3.org/2000/svg">
<path d="M40.9091 0H4.09091C1.83068 0 0 1.83068 0 4.09091V40.9091C0 43.1693 1.83068 45 4.09091 45H40.9091C43.1693 45 45 43.1693 45 40.9091V4.09091C45 1.83068 43.1673 0 40.9091 0ZM38.2275 19.3786C37.9616 19.4032 37.6936 19.4195 37.4236 19.4195C34.3657 19.4195 31.678 17.8486 30.1132 15.4698C30.1132 21.7064 30.1132 28.8041 30.1132 28.9227C30.1132 34.4148 25.6602 38.8657 20.1702 38.8657C14.6802 38.8636 10.2273 34.4107 10.2273 28.9207C10.2273 23.4286 14.6802 18.9777 20.1702 18.9777C20.3789 18.9777 20.5814 18.9961 20.7839 19.0084V23.9093C20.5793 23.8848 20.3809 23.848 20.1702 23.848C17.368 23.848 15.0955 26.1205 15.0955 28.9227C15.0955 31.725 17.3659 33.9975 20.1702 33.9975C22.9745 33.9975 25.4495 31.7884 25.4495 28.9861C25.4495 28.8736 25.4986 6.13841 25.4986 6.13841H30.1807C30.6205 10.3255 34.0016 13.6309 38.2275 13.9336V19.3786Z" fill="black"/>
</svg>
